<?xml version="1.0" encoding="UTF-8" standalone="no"?>
<!-- Created with Inkscape (http://www.inkscape.org/) -->

<svg
   width="210mm"
   height="297mm"
   viewBox="0 0 210 297"
   version="1.1"
   id="svg5"
   inkscape:version="1.1.2 (b8e25be833, 2022-02-05)"
   sodipodi:docname="logo.svg"
   xmlns:inkscape="http://www.inkscape.org/namespaces/inkscape"
   xmlns:sodipodi="http://sodipodi.sourceforge.net/DTD/sodipodi-0.dtd"
   xmlns="http://www.w3.org/2000/svg"
   xmlns:svg="http://www.w3.org/2000/svg">
  <sodipodi:namedview
     id="namedview7"
     pagecolor="#ffffff"
     bordercolor="#666666"
     borderopacity="1.0"
     inkscape:pageshadow="2"
     inkscape:pageopacity="0.0"
     inkscape:pagecheckerboard="0"
     inkscape:document-units="mm"
     showgrid="false"
     inkscape:zoom="0.26173516"
     inkscape:cx="1060.232"
     inkscape:cy="-168.10886"
     inkscape:window-width="1920"
     inkscape:window-height="1017"
     inkscape:window-x="1912"
     inkscape:window-y="-8"
     inkscape:window-maximized="1"
     inkscape:current-layer="layer1" />
  <defs
     id="defs2" />
  <g
     inkscape:label="Слой 1"
     inkscape:groupmode="layer"
     id="layer1">
    <path
       style="fill:#0093ff;fill-opacity:1;stroke:#02090c;stroke-width:1.91033"
       d=""
       id="path7679"
       transform="scale(0.26458333)" />
    <path
       style="fill:#0093ff;fill-opacity:1;stroke:#02090c;stroke-width:1.91033"
       d=""
       id="path10236"
       transform="scale(0.26458333)" />
    <path
       style="fill:#0093ff;fill-opacity:1;stroke:#02090c;stroke-width:1.91033"
       d=""
       id="path10392"
       transform="scale(0.26458333)" />
    <path
       style="fill:#0093ff;fill-opacity:1;stroke:#02090c;stroke-width:1.91033"
       d=""
       id="path11521"
       transform="scale(0.26458333)" />
    <path
       style="fill:#0093ff;fill-opacity:1;stroke:#02090c;stroke-width:1.91033"
       d=""
       id="path11638"
       transform="scale(0.26458333)" />
    <path
       style="fill:#ff4c00;fill-opacity:1;stroke:#02090c;stroke-width:1.91033"
       d=""
       id="path11755"
       transform="scale(0.26458333)" />
    <path
       style="fill:#ff4c00;fill-opacity:1;stroke:#02090c;stroke-width:1.91033"
       d=""
       id="path12645"
       transform="scale(0.26458333)" />
    <path
       sodipodi:type="star"
       style="fill:#0000ff;fill-opacity:1;stroke:#02090c"
       id="path13162"
       inkscape:flatsided="false"
       sodipodi:sides="2"
       sodipodi:cx="391.61725"
       sodipodi:cy="3.8206561"
       sodipodi:r1="1113.5164"
       sodipodi:r2="556.75818"
       sodipodi:arg1="1.5707963"
       sodipodi:arg2="3.1415927"
       inkscape:rounded="0"
       inkscape:randomized="0"
       d="M 391.61728,1117.337 -165.14093,3.8206302 391.61722,-1109.6957 948.37543,3.8206819 Z"
       transform="matrix(0.12753559,0,0,0.13321835,57.46854,149.01423)" />
    <circle
       style="fill:#0000ff;fill-opacity:1;stroke:#02090c;stroke-width:0.338842"
       id="path13312"
       cx="106.90075"
       cy="150.87411"
       r="64.406593" />
    <path
       style="fill:#0000ff;fill-opacity:1;stroke:#02090c;stroke-width:1.91033"
       d="m 313.17634,929.07184 c -50.8934,-106.23929 -92.8847,-194.11947 -93.31399,-195.28928 -0.42929,-1.16982 7.00928,5.27355 16.53015,14.31859 9.52087,9.04504 23.34081,20.45435 30.71097,25.35403 20.89747,13.89261 51.39257,27.54557 76.20635,34.11835 21.63174,5.7299 24.02171,5.96466 60.72455,5.96466 36.70285,0 39.09282,-0.23476 60.72455,-5.96466 24.83744,-6.57904 55.18852,-20.17315 76.4987,-34.26341 7.53096,-4.97945 22.63577,-17.67824 33.56622,-28.21952 10.96422,-10.57383 19.39946,-17.45316 18.81599,-15.34531 -0.91808,3.31673 -186.16803,390.72691 -187.44793,392.00681 -0.26515,0.2652 -42.12215,-86.441 -93.01556,-192.68026 z"
       id="path13504"
       transform="scale(0.26458333)" />
    <path
       style="fill:#0000ff;fill-opacity:1;stroke:#02090c;stroke-width:1.91033"
       d="m 602.76165,426.69598 c -8.43871,-12.75171 -36.93824,-41.37612 -53.46514,-53.69934 -21.74591,-16.21479 -56.26882,-32.6297 -84.13164,-40.00284 -22.10078,-5.84835 -24.29588,-6.06617 -61.1305,-6.06617 -36.83462,0 -39.02973,0.21782 -61.1305,6.06617 -27.86282,7.37314 -62.38573,23.78805 -84.13165,40.00284 -8.36297,6.23583 -22.79956,19.25403 -32.08132,28.92936 -9.28175,9.67531 -16.38149,16.03369 -15.77719,14.1297 1.0771,-3.39366 186.78754,-391.682634 192.46813,-402.41817 l 2.89214,-5.4657509 6.71859,14.0622259 c 3.6952,7.734225 49.45978,103.331505 101.69906,212.438385 52.23927,109.10689 94.61404,198.74263 94.16614,199.19053 -0.4479,0.4479 -3.19116,-2.77722 -6.09612,-7.16694 z"
       id="path13543"
       transform="scale(0.26458333)" />
    <path
       style="fill:#0000ff;fill-opacity:1;stroke:#02090c;stroke-width:1.91033"
       d="m 398.30953,1102.7938 c -6.69864,-14.443 -28.23536,-59.5313 -133.72469,-279.96009 -19.74616,-41.26125 -35.38439,-75.53817 -34.75163,-76.17093 0.63277,-0.63277 6.56063,3.79849 13.17303,9.84723 27.06893,24.76149 63.68108,43.47019 106.42824,54.38451 12.77346,3.26135 21.24575,3.86037 54.59989,3.86037 42.503,0 52.42578,-1.50765 83.57309,-12.69793 31.55993,-11.33852 55.34839,-25.68353 81.5528,-49.17834 8.86617,-7.94938 16.4224,-14.15134 16.79161,-13.78213 0.94563,0.94563 -79.91173,171.30403 -168.99518,356.05601 l -11.31119,23.4585 z"
       id="path13884"
       transform="scale(0.26458333)" />
    <path
       style="fill:#008000;fill-opacity:1;stroke:#02090c;stroke-width:1.91033"
       d="m 398.90236,1099.3938 c -3.71074,-7.8801 -34.49571,-72.3537 -68.41107,-143.27464 -76.14883,-159.23601 -95.75073,-200.99143 -94.80057,-201.94159 0.40744,-0.40744 4.78119,2.75613 9.71945,7.03016 22.80489,19.73749 56.37409,37.46251 90.80756,47.9477 18.80144,5.72514 22.34712,6.16569 56.57989,7.03008 43.30896,1.09356 60.66672,-0.8661 87.65117,-9.89566 33.74659,-11.29231 56.08685,-23.73431 83.82179,-46.68301 11.21349,-9.27837 14.70586,-11.36558 13.69663,-8.18576 -2.359,7.43254 -96.79152,206.40133 -154.2713,325.04872 l -18.04676,37.2514 z"
       id="path14407"
       transform="scale(0.26458333)" />
    <path
       style="fill:#ff0000;fill-opacity:1;stroke:#02090c;stroke-width:1.91033"
       d="M 356.80325,807.15138 C 297.34827,794.61522 247.05956,762.9649 211.52491,715.71722 120.36571,594.50985 160.58252,422.70724 296.10084,354.41644 c 35.06385,-17.66948 66.35923,-24.88486 107.93353,-24.88486 41.54039,0 71.91928,6.9025 106.89599,24.28824 46.70133,23.21366 86.78126,63.03388 109.81867,109.10712 27.65562,55.30935 32.34537,123.92485 12.51954,183.17346 -28.07089,83.88863 -99.26505,145.85633 -185.98527,161.88234 -22.59771,4.17607 -68.74224,3.75209 -90.48005,-0.83136 z"
       id="path14446"
       transform="scale(0.26458333)" />
    <path
       style="fill:#008000;fill-opacity:1;stroke:#02090c;stroke-width:1.91033"
       d="m 574.91663,393.69447 c -31.14091,-30.29973 -60.93408,-47.63651 -105.93111,-61.64177 -16.90067,-5.26032 -18.00484,-5.35129 -64.95115,-5.35129 -46.94632,0 -48.05048,0.0909 -64.95115,5.35129 -42.80139,13.32188 -74.40693,31.25609 -102.35226,58.0787 -10.42446,10.00565 -18.95357,17.6688 -18.95357,17.02922 0,-1.25252 50.94746,-108.37669 122.32234,-257.19987 24.43921,-50.958002 49.28579,-102.78738 55.21463,-115.176399 l 10.77969,-22.525488 42.78445,89.386967 c 86.58949,180.90618 149.08203,312.54883 148.59708,313.02479 -0.27394,0.26886 -10.42548,-9.17042 -22.55895,-20.97615 z"
       id="path14485"
       transform="scale(0.26458333)" />
  </g>
</svg>
