<svg width="527" height="100" viewBox="0 0 527 100" fill="none" xmlns="http://www.w3.org/2000/svg">
<path fill-rule="evenodd" clip-rule="evenodd" d="M47 100C72.9574 100 94 77.6142 94 50V51.5H140.379L133.393 58.4853C132.808 59.0711 132.808 60.0208 133.393 60.6066C133.979 61.1924 134.929 61.1924 135.515 60.6066L144.04 52.0813C145.066 78.7304 165.698 100 191 100C216.957 100 238 77.6142 238 50V51.5H284.379L277.393 58.4853C276.808 59.0711 276.808 60.0208 277.393 60.6066C277.979 61.1924 278.929 61.1924 279.515 60.6066L289.011 51.11C289.566 78.2116 310.391 100 336 100C361.957 100 383 77.6142 383 50V51.5H429.379L422.393 58.4853C421.808 59.0711 421.808 60.0208 422.393 60.6066C422.979 61.1924 423.929 61.1924 424.515 60.6066L433.04 52.0813C434.066 78.7304 454.698 100 480 100C505.957 100 527 77.6142 527 50C527 22.3858 505.957 0 480 0C454.698 0 434.066 21.2696 433.04 47.9187L424.515 39.3934C423.929 38.8076 422.979 38.8076 422.393 39.3934C421.808 39.9792 421.808 40.9289 422.393 41.5147L429.379 48.5H383V50C383 22.3858 361.957 0 336 0C310.391 0 289.566 21.7884 289.011 48.89L279.515 39.3934C278.929 38.8076 277.979 38.8076 277.393 39.3934C276.808 39.9792 276.808 40.9289 277.393 41.5147L284.379 48.5H238V50C238 22.3858 216.957 0 191 0C165.698 0 145.066 21.2696 144.04 47.9187L135.515 39.3934C134.929 38.8076 133.979 38.8076 133.393 39.3934C132.808 39.9792 132.808 40.9289 133.393 41.5147L140.379 48.5H94V50C94 22.3858 72.9574 0 47 0C21.0426 0 0 22.3858 0 50C0 77.6142 21.0426 100 47 100Z" fill="#D9D9D9"/>
</svg>
